#!OML:ASF E:\acrobat2\Project_11_07_03\Capture day 1\Session 1\Acrobat.ASF
:FULLY-SPECIFIED
:DEGREES
440
root 8.03942 17.4531 3.69947 283.877 78.3523 109.622
lowerback -0.730919 -2.49013 2.56588
upperback -7.9893 -2.87229 3.02286
thorax -7.92921 -1.41971 1.91498
lowerneck -4.78276 -11.7739 -0.595889
upperneck -28.9165 -16.4884 6.97377
head -7.55203 -8.01459 3.0572
rclavicle -3.8763e-014 -3.02153e-014
rhumerus 114.094 -20.2403 -89.9692
rradius 14.1769
rwrist 41.6736
rhand -39.4277 -59.818
rfingers 7.12502
rthumb -12.4161 -89.4293
lclavicle -3.8763e-014 -3.02153e-014
lhumerus 85.4788 38.7351 42.4545
lradius 23.0286
lwrist -16.5568
lhand -58.9888 -59.5374
lfingers 7.12502
lthumb -31.1886 -32.172
rfemur -4.70093 35.8189 -33.9516
rtibia -5.17335
rfoot -70.0759 -44.3483
rtoes 54.6821
lfemur 11.0087 -25.0971 17.7647
ltibia -0.0113727
lfoot -37.7296 16.1386
ltoes 54.3464
441
root 8.03099 17.4714 3.95986 286.873 76.1482 113.038
lowerback -0.271433 -2.3862 3.00802
upperback -7.87968 -2.64256 3.92827
thorax -8.06693 -1.29681 2.62822
lowerneck -5.01626 -10.9184 1.07652
upperneck -29.4738 -15.8548 3.73433
head -8.18455 -7.45972 1.80105
rclavicle -3.71727e-014 -1.63003e-014
rhumerus 112.142 -21.4299 -85.7904
rradius 14.7486
rwrist 37.441
rhand -39.4488 -61.1071
rfingers 7.12502
rthumb -12.4364 -269.283
lclavicle -3.71727e-014 -1.63003e-014
lhumerus 88.7818 38.1885 47.0743
lradius 22.3889
lwrist -19.6922
lhand -58.8055 -57.4829
lfingers 7.12502
lthumb -31.014 -30.0841
rfemur -6.13077 35.7622 -35.763
rtibia -5.22578
rfoot -72.0518 -41.6968
rtoes 55.5623
lfemur 12.0572 -25.055 16.4182
ltibia -0.111181
lfoot -37.1577 16.1877
ltoes 54.5659
442
root 8.02702 17.497 4.21265 288.477 73.9564 115.087
lowerback 0.285422 -2.31947 3.67952
upperback -7.73426 -2.45093 4.67491
thorax -8.24662 -1.21445 3.05531
lowerneck -4.80348 -11.5995 1.02463
upperneck -28.7082 -16.6782 4.6541
head -7.85275 -7.98747 2.11315
rclavicle 2.4868e-013 2.38542e-015
rhumerus 111.855 -20.8109 -84.9349
rradius 14.6047
rwrist 36.7337
rhand -39.6294 -61.8824
rfingers 7.12502
rthumb -12.6105 -268.518
lclavicle 2.4868e-013 2.38542e-015
lhumerus 88.4887 38.7022 46.9806
lradius 23.1875
lwrist -18.688
lhand -58.578 -55.6179
lfingers 7.12502
lthumb -30.7971 -28.178
rfemur -7.51361 35.6343 -37.6341
rtibia -5.40064
rfoot -73.5821 -40.9709
rtoes 55.7944
lfemur 12.8903 -24.9731 15.1869
ltibia -0.126221
lfoot -36.1866 16.6387
ltoes 54.7222
443
root 8.00728 17.5196 4.45812 289.76 71.8784 116.716
lowerback 0.502383 -2.21954 4.51229
upperback -7.55417 -2.24149 5.26612
thorax -8.205 -1.14388 3.20849
lowerneck -4.77749 -11.4327 -0.201138
upperneck -28.5712 -16.2775 5.00922
head -7.66918 -7.69525 2.36667
rclavicle 1.59624e-013 3.65764e-014
rhumerus 113.286 -18.295 -87.5229
rradius 13.652
rwrist 39.6553
rhand -39.7701 -62.252
rfingers 7.12502
rthumb -12.7462 -268.157
lclavicle 1.59624e-013 3.65764e-014
lhumerus 85.1139 40.1316 43.0109
lradius 25.2693
lwrist -14.2038
lhand -58.157 -51.7602
lfingers 7.12502
lthumb -30.3956 -24.2453
rfemur -8.80073 35.7933 -39.7225
rtibia -5.81623
rfoot -75.1297 -41.9278
rtoes 55.443
lfemur 13.6842 -24.9886 13.7309
ltibia -0.144971
lfoot -35.405 16.6244
ltoes 55.1957
444
root 7.9925 17.5459 4.71317 291.035 70.1809 118.372
lowerback 0.7928 -2.17952 4.91197
upperback -7.36667 -2.13479 5.71154
thorax -8.1794 -1.0998 3.45852
lowerneck -4.96085 -11.3217 0.434418
upperneck -28.6233 -16.1805 4.61133
head -7.75334 -7.65914 2.13975
rclavicle 1.64594e-013 3.06128e-014
rhumerus 113.96 -16.4898 -89.0821
rradius 13.2363
rwrist 41.0778
rhand -39.7301 -62.747
rfingers 7.12502
rthumb -12.7076 -267.66
lclavicle 1.64594e-013 3.06128e-014
lhumerus 86.1484 40.2103 44.1472
lradius 26.0737
lwrist -13.955
lhand -57.5164 -46.1735
lfingers 7.12502
lthumb -29.7844 -18.5475
rfemur -10.3123 35.4364 -42.3354
rtibia -5.78978
rfoot -75.6797 -42.844
rtoes 55.3438
lfemur 14.1612 -24.4777 12.0731
ltibia 0.0411669
lfoot -34.093 17.2922
ltoes 55.6923
445
root 7.97866 17.5716 4.96834 291.83 68.7103 119.583
lowerback 1.13453 -2.19892 5.13687
upperback -7.19019 -2.11296 6.04507
thorax -8.18949 -1.08887 3.69656
lowerneck -5.24804 -11.2798 -0.971085
upperneck -27.8757 -15.7326 5.96124
head -7.20751 -7.48215 2.67682
rclavicle 7.35503e-014 5.88403e-014
rhumerus 114.875 -14.2284 -91.6103
rradius 12.7147
rwrist 43.4286
rhand -39.7928 -63.001
rfingers 7.12502
rthumb -12.768 -267.409
lclavicle 7.35503e-014 5.88403e-014
lhumerus 86.9182 40.1776 45.1578
lradius 27.2727
lwrist -13.4938
lhand -56.6567 -40.3573
lfingers 7.12502
lthumb -28.9637 -12.5873
rfemur -11.4568 34.3865 -44.9954
rtibia -5.93123
rfoot -76.1937 -42.3365
rtoes 55.5554
lfemur 14.3817 -23.7504 10.3489
ltibia 0.334953
lfoot -32.1834 18.8879
ltoes 54.8579
446
root 7.96104 17.5939 5.22593 292.222 67.3688 120.426
lowerback 1.41042 -2.21248 5.33389
upperback -6.99996 -2.10205 6.23197
thorax -8.14814 -1.08831 3.78997
lowerneck -5.39585 -11.0085 -0.428838
upperneck -28.0017 -15.4287 5.30863
head -7.3405 -7.30201 2.38499
rclavicle -3.83654e-014 -1.19271e-015
rhumerus 115.94 -11.7334 -94.9892
rradius 12.0224
rwrist 46.6688
rhand -40.0456 -63.0221
rfingers 7.12502
rthumb -13.0118 -267.404
lclavicle -3.83654e-014 -1.19271e-015
lhumerus 87.9458 39.7068 46.2849
lradius 28.4877
lwrist -12.739
lhand -55.6421 -35.3978
lfingers 7.12502
lthumb -27.9941 -7.46546
rfemur -12.3475 32.4143 -47.5487
rtibia -5.98838
rfoot -75.6736 -42.1772
rtoes 55.3035
lfemur 14.51 -23.0058 8.59713
ltibia 0.614623
lfoot -30.1945 20.1511
ltoes 53.4847
447
root 7.94492 17.6175 5.4927 292.412 65.5637 121.113
lowerback 1.75691 -2.12285 5.88892
upperback -6.82676 -1.92954 6.47676
thorax -8.18642 -1.03352 3.73905
lowerneck -5.22061 -10.9136 0.963915
upperneck -28.4138 -15.5236 4.32073
head -7.71798 -7.35704 1.91679
rclavicle -9.34288e-014 -8.74653e-015
rhumerus 115.772 -11.5628 -95.0603
rradius 12.0414
rwrist 46.1026
rhand -40.4024 -63.6623
rfingers 7.12502
rthumb -13.3556 -266.786
lclavicle -9.34288e-014 -8.74653e-015
lhumerus 89.4687 38.6559 47.7712
lradius 29.3937
lwrist -11.9708
lhand -54.661 -31.4414
lfingers 7.12502
lthumb -27.0559 -3.35969
rfemur -13.4504 31.075 -49.7
rtibia -5.95978
rfoot -75.9579 -42.3775
rtoes 54.246
lfemur 14.7721 -22.5717 7.30082
ltibia 0.928457
lfoot -30.5365 18.3561
ltoes 55.2613
448
root 7.93234 17.645 5.76252 292.59 63.3214 121.821
lowerback 2.25836 -1.95633 6.69014
upperback -6.67467 -1.61449 6.89159
thorax -8.3479 -0.922062 3.7318
lowerneck -5.1742 -11.0182 -0.116466
upperneck -28.0139 -15.4057 5.34978
head -7.40298 -7.31337 2.36757
rclavicle 2.37349e-013 6.75868e-014
rhumerus 115.664 -11.1622 -95.1716
rradius 11.9496
rwrist 45.8826
rhand -40.7024 -64.7955
rfingers 7.12502
rthumb -13.6448 -265.672
lclavicle 2.37349e-013 6.75868e-014
lhumerus 88.0166 38.9354 45.5317
lradius 31.1383
lwrist -7.5181
lhand -53.6918 -28.7109
lfingers 7.12502
lthumb -26.1283 -0.488537
rfemur -14.9286 29.7866 -51.5257
rtibia -5.67239
rfoot -75.8198 -42.4334
rtoes 53.3095
lfemur 15.1569 -22.597 6.34757
ltibia 1.23477
lfoot -30.7428 18.1393
ltoes 55.9653
449
root 7.9175 17.6763 6.03312 292.736 61.3665 122.525
lowerback 2.74502 -1.82195 7.18809
upperback -6.48206 -1.36213 7.27219
thorax -8.44105 -0.822271 3.8568
lowerneck -5.48418 -11.1096 -0.403465
upperneck -27.5727 -15.414 5.71865
head -7.14434 -7.33565 2.47692
rclavicle -7.11649e-014 -5.40694e-014
rhumerus 116.238 -9.56699 -97.0879
rradius 11.396
rwrist 47.8745
rhand -40.7614 -65.6292
rfingers 7.12502
rthumb -13.7017 -264.842
lclavicle -7.11649e-014 -5.40694e-014
lhumerus 85.815 39.3303 43.1394
lradius 33.326
lwrist -2.65276
lhand -53.0015 -28.6296
lfingers 7.12502
lthumb -25.4672 -0.311241
rfemur -16.2858 27.9518 -53.5579
rtibia -5.39555
rfoot -75.0017 -43.5265
rtoes 52.1539
lfemur 15.1679 -21.4956 5.50068
ltibia 1.53309
lfoot -29.0617 19.7438
ltoes 54.8007
450
root 7.89565 17.7086 6.31375 292.818 59.9397 123.348
lowerback 3.24589 -1.66578 7.16223
upperback -6.25618 -1.13463 7.40124
thorax -8.48747 -0.712319 3.99799
lowerneck -5.70827 -11.1536 -0.201598
upperneck -27.3669 -15.4789 5.54893
head -7.06996 -7.36347 2.37086
rclavicle -1.17681e-013 -7.95139e-015
rhumerus 117.045 -7.44999 -100.421
rradius 10.6308
rwrist 51.5471
rhand -40.8829 -66.0035
rfingers 7.12502
rthumb -13.8188 -264.476
lclavicle -1.17681e-013 -7.95139e-015
lhumerus 85.0982 39.0105 42.0968
lradius 34.6954
lwrist 0.746087
lhand -52.5904 -30.2277
lfingers 7.12502
lthumb -25.0733 -1.85371
rfemur -17.2936 26.4575 -56.0636
rtibia -5.37351
rfoot -74.1952 -44.5318
rtoes 50.5633
lfemur 15.1898 -20.2224 4.12848
ltibia 1.84588
lfoot -27.8603 20.3095
ltoes 54.0759
451
root 7.86922 17.7403 6.60832 292.495 58.6018 124.057
lowerback 3.95332 -1.49147 6.94573
upperback -5.94679 -0.885951 7.48696
thorax -8.56014 -0.582036 4.19762
lowerneck -5.87893 -11.082 -0.0626334
upperneck -27.4126 -15.3928 5.27543
head -7.09632 -7.28834 2.25298
rclavicle 6.67916e-014 9.30312e-014
rhumerus 117.585 -6.35993 -102.037
rradius 9.90394
rwrist 53.4676
rhand -41.142 -66.8109
rfingers 7.12502
rthumb -14.0685 -263.685
lclavicle 6.67916e-014 9.30312e-014
lhumerus 85.5801 38.1657 42.2538
lradius 35.1483
lwrist 2.54042
lhand -52.2609 -32.1726
lfingers 7.12502
lthumb -24.7576 -3.75482
rfemur -17.9891 26.6822 -58.7512
rtibia -5.81952
rfoot -75.8442 -45.1634
rtoes 49.5134
lfemur 15.412 -18.818 2.71915
ltibia 2.1539
lfoot -26.9117 20.91
ltoes 54.2949
452
root 7.84692 17.7679 6.90886 291.83 57.0669 124.394
lowerback 4.69798 -1.34172 6.88853
upperback -5.61688 -0.644722 7.73083
thorax -8.64002 -0.458616 4.48031
lowerneck -6.21592 -11.3139 -0.862954
upperneck -26.9805 -15.5086 6.14867
head -6.74715 -7.35907 2.58874
rclavicle -1.39149e-014 -9.22361e-014
rhumerus 117.779 -5.3565 -103.606
rradius 9.96948
rwrist 55.2207
rhand -40.9654 -67.5666
rfingers 7.12502
rthumb -13.8983 -262.918
lclavicle -1.39149e-014 -9.22361e-014
lhumerus 85.5627 37.5579 42.1871
lradius 35.5143
lwrist 3.51935
lhand -51.9952 -34.1039
lfingers 7.12502
lthumb -24.5029 -5.6514
rfemur -18.7166 24.2164 -60.6756
rtibia -5.6403
rfoot -73.6809 -46.6563
rtoes 48.5136
lfemur 15.5256 -17.6577 1.59679
ltibia 2.48949
lfoot -26.3535 21.6133
ltoes 54.1871
453
root 7.82754 17.7881 7.20949 291.373 55.4471 124.669
lowerback 5.19219 -1.21522 6.98697
upperback -5.37847 -0.441206 7.94207
thorax -8.67728 -0.364783 4.63877
lowerneck -6.02321 -11.4185 -1.54471
upperneck -27.2134 -15.6059 6.24985
head -6.78618 -7.30856 2.73829
rclavicle -5.08889e-014 7.79236e-014
rhumerus 117.75 -4.31515 -105.331
rradius 10.1361
rwrist 57.017
rhand -40.6601 -68.2964
rfingers 7.12502
rthumb -13.6041 -262.168
lclavicle -5.08889e-014 7.79236e-014
lhumerus 85.0862 37.2203 41.2547
lradius 35.7791
lwrist 3.78265
lhand -51.8914 -35.5742
lfingers 7.12502
lthumb -24.4034 -7.10832
rfemur -19.6503 21.8576 -62.5954
rtibia -5.28293
rfoot -72.0321 -46.8919
rtoes 47.6088
lfemur 15.3325 -17.0614 0.479637
ltibia 2.94149
lfoot -27.6131 20.6254
ltoes 54.2411
